#!OML:ASF H:\Terrain\Patient Classification 1\Takeo\Monday\TakeoMonday.ASF
:FULLY-SPECIFIED
:DEGREES
283
root 10.2706 17.4945 27.1783 -5.66777 -4.17728 0.215668
lowerback 9.79039 0.242362 2.85781
upperback 2.31246 0.595703 -0.284073
thorax -3.05057 0.276297 -1.97597
lowerneck -11.1751 1.34924 -2.12793
upperneck 0.24127 2.19706 -3.46533
head 2.00929 0.978259 -0.625841
rclavicle 1.23122e-014 -4.27387e-015
rhumerus -37.6048 13.3845 -93.9944
rradius 40.6444
rwrist -23.7377
rhand -32.707 25.8776
rfingers 7.12502
rthumb -5.93134 -4.01935
lclavicle 1.23122e-014 -4.27387e-015
lhumerus -33.6368 4.85682 87.8358
lradius 43.2521
lwrist 32.6068
lhand -22.8055 27.0851
lfingers 7.12502
lthumb 3.63091 57.0339
rfemur -23.2685 7.73117 21.9508
rtibia 68.7772
rfoot -4.2652 -17.0084
rtoes -26.677
lfemur -4.06184 -2.12526 -27.9474
ltibia 37.1321
lfoot -24.5587 10.6536
ltoes 4.24158
284
root 10.2619 17.5161 27.4011 -5.41319 -3.41256 -0.144175
lowerback 8.61981 0.135566 3.15266
upperback 3.06536 0.433318 -0.176019
thorax -1.63062 0.226565 -1.99656
lowerneck -11.9767 1.06946 -2.68862
upperneck -0.0192993 1.89816 -2.85131
head 2.05062 0.844815 -0.344873
rclavicle 2.67117e-015 -7.55382e-015
rhumerus -36.9007 12.4775 -93.6981
rradius 38.6875
rwrist -22.3066
rhand -31.7852 25.0641
rfingers 7.12502
rthumb -5.04136 -4.85594
lclavicle 2.67117e-015 -7.55382e-015
lhumerus -31.6929 3.20394 88.5669
lradius 45.3376
lwrist 33.261
lhand -23.6889 25.2358
lfingers 7.12502
lthumb 2.77779 55.1974
rfemur -24.6338 7.56196 22.0967
rtibia 66.7899
rfoot -5.05176 -16.4867
rtoes -25.825
lfemur -3.06542 -2.56512 -27.6173
ltibia 36.3326
lfoot -24.1768 10.457
ltoes 1.0836
285
root 10.2635 17.5197 27.6362 -5.34643 -3.00789 -0.28228
lowerback 9.04759 0.0131029 3.07448
upperback 2.58257 0.2937 0.0359378
thorax -2.37669 0.139096 -1.72391
lowerneck -11.6682 1.08407 -2.79235
upperneck 0.385979 1.9319 -2.80473
head 2.12877 0.857046 -0.311139
rclavicle -3.06874e-015 -7.95139e-015
rhumerus -38.497 11.4136 -93.4556
rradius 37.6507
rwrist -20.6928
rhand -29.9378 21.7826
rfingers 7.12502
rthumb -3.25734 -8.17227
lclavicle -3.06874e-015 -7.95139e-015
lhumerus -32.1857 2.30511 89.0995
lradius 47.9407
lwrist 33.408
lhand -24.0441 24.6744
lfingers 7.12502
lthumb 2.43476 54.6402
rfemur -25.7021 7.67481 21.963
rtibia 64.5202
rfoot -5.97707 -15.8025
rtoes -24.203
lfemur -1.70513 -2.65861 -27.5898
ltibia 35.2715
lfoot -23.8987 10.6184
ltoes -2.42586
286
root 10.2678 17.5216 27.8807 -5.56928 -2.74288 -0.246924
lowerback 8.96074 0.00277685 3.04694
upperback 2.76597 0.272116 0.0696558
thorax -2.14023 0.134051 -1.67015
lowerneck -12.0011 1.10453 -2.39214
upperneck 0.480119 1.93629 -3.19718
head 2.23118 0.843022 -0.503712
rclavicle -8.27441e-015 8.94531e-015
rhumerus -39.3086 10.5926 -93.5122
rradius 36.7012
rwrist -20.4574
rhand -30.0151 19.1077
rfingers 7.12502
rthumb -3.33207 -10.846
lclavicle -8.27441e-015 8.94531e-015
lhumerus -31.64 1.05736 89.5753
lradius 50.3812
lwrist 33.494
lhand -24.3562 24.1296
lfingers 7.12502
lthumb 2.13333 54.0987
rfemur -26.0217 7.72616 21.7241
rtibia 62.049
rfoot -6.78154 -15.3465
rtoes -21.5315
lfemur -0.0989802 -2.50242 -27.7812
ltibia 34.4811
lfoot -23.9458 10.9522
ltoes -4.8525
287
root 10.2655 17.5253 28.1226 -5.65706 -2.32033 -0.280532
lowerback 8.69234 -0.0125501 3.04425
upperback 2.9881 0.238808 0.0975638
thorax -1.76398 0.125627 -1.63436
lowerneck -12.3899 1.0433 -2.42284
upperneck 0.675878 1.87288 -3.00591
head 2.36575 0.810434 -0.438262
rclavicle 2.91965e-015 -1.63003e-014
rhumerus -39.9438 9.81292 -93.688
rradius 35.3646
rwrist -20.1347
rhand -30.9436 17.9155
rfingers 7.12502
rthumb -4.22867 -12.0223
lclavicle 2.91965e-015 -1.63003e-014
lhumerus -30.809 -0.553572 89.9865
lradius 52.4778
lwrist 33.8585
lhand -24.3919 23.5356
lfingers 7.12502
lthumb 2.09889 53.505
rfemur -26.312 7.5899 21.592
rtibia 59.2336
rfoot -7.06514 -15.0736
rtoes -19.7335
lfemur 1.39053 -2.43898 -27.8354
ltibia 33.578
lfoot -24.2277 10.8022
ltoes -4.84368
288
root 10.259 17.5049 28.3588 -5.52623 -1.66939 -0.393695
lowerback 8.63645 -0.126724 2.9353
upperback 2.83843 0.0837112 0.273282
thorax -1.89661 0.0442959 -1.37613
lowerneck -12.4095 0.92942 -2.66316
upperneck 0.974835 1.76064 -2.83966
head 2.46613 0.752928 -0.348917
rclavicle 2.45996e-015 1.88845e-014
rhumerus -41.1809 8.99375 -93.5426
rradius 34.1568
rwrist -19.2595
rhand -30.8283 16.9692
rfingers 7.12502
rthumb -4.11733 -12.9708
lclavicle 2.45996e-015 1.88845e-014
lhumerus -30.54 -1.92273 90.4674
lradius 54.6016
lwrist 34.1797
lhand -24.6524 22.7303
lfingers 7.12502
lthumb 1.84725 52.7021
rfemur -26.9071 7.1333 21.5252
rtibia 56.2582
rfoot -6.82827 -14.603
rtoes -21.5818
lfemur 2.54202 -2.34393 -27.6651
ltibia 32.6888
lfoot -24.1682 10.1805
ltoes -3.87862
289
root 10.2525 17.5486 28.5997 -5.3851 -1.07398 -0.390661
lowerback 8.77969 -0.28673 2.57493
upperback 2.51846 -0.143033 0.467402
thorax -2.31647 -0.0769567 -0.949567
lowerneck -12.0545 0.878603 -2.78714
upperneck 1.03378 1.70067 -2.87625
head 2.41954 0.722848 -0.344345
rclavicle -5.23052e-015 -2.10712e-014
rhumerus -42.6165 8.10692 -93.2149
rradius 33.0027
rwrist -17.9706
rhand -30.1112 16.5969
rfingers 7.12502
rthumb -3.42484 -13.3553
lclavicle -5.23052e-015 -2.10712e-014
lhumerus -30.7447 -2.85701 90.8643
lradius 57.051
lwrist 34.2533
lhand -25.0739 21.9458
lfingers 7.12502
lthumb 1.44022 51.9207
rfemur -27.1628 6.80376 21.3143
rtibia 52.9443
rfoot -6.23903 -14.18
rtoes -24.2555
lfemur 3.74477 -2.1186 -27.551
ltibia 31.6233
lfoot -23.6416 9.74553
ltoes -5.06676
290
root 10.2465 17.5632 28.8371 -5.37212 -0.496258 -0.270123
lowerback 8.64713 -0.367098 2.36904
upperback 2.56855 -0.272449 0.462328
thorax -2.19528 -0.139204 -0.826055
lowerneck -12.0479 0.610315 -3.20205
upperneck 0.975232 1.37942 -2.40256
head 2.391 0.578596 -0.138193
rclavicle 2.11209e-015 -7.95139e-016
rhumerus -42.8179 6.70746 -92.8113
rradius 31.2793
rwrist -16.7438
rhand -29.703 16.0563
rfingers 7.12502
rthumb -3.03068 -13.9019
lclavicle 2.11209e-015 -7.95139e-016
lhumerus -30.3831 -4.06104 91.0938
lradius 59.4315
lwrist 34.1888
lhand -24.8115 21.6612
lfingers 7.12502
lthumb 1.6936 51.6342
rfemur -27.3254 6.62827 20.9287
rtibia 49.7105
rfoot -6.01374 -13.8548
rtoes -23.0265
lfemur 5.10412 -1.90285 -27.5914
ltibia 30.5685
lfoot -23.4699 9.49552
ltoes -7.42745
291
root 10.2421 17.5613 29.0718 -5.3648 0.302576 -0.211218
lowerback 8.25915 -0.47426 2.33049
upperback 2.8681 -0.434881 0.438093
thorax -1.67633 -0.212394 -0.81617
lowerneck -12.8011 0.0238125 -3.88424
upperneck 1.20378 0.706888 -1.62904
head 2.60783 0.258248 0.194822
rclavicle 1.26725e-015 -7.7526e-015
rhumerus -42.6664 5.04506 -92.2807
rradius 29.7343
rwrist -15.3527
rhand -29.5668 14.7809
rfingers 7.12502
rthumb -2.89907 -15.1791
lclavicle 1.26725e-015 -7.7526e-015
lhumerus -29.3812 -5.85267 91.2452
lradius 61.3933
lwrist 34.4764
lhand -24.7089 21.1802
lfingers 7.12502
lthumb 1.79269 51.1524
rfemur -27.4564 6.43085 20.526
rtibia 46.4676
rfoot -7.67339 -13.3585
rtoes -22.1155
lfemur 6.58794 -1.7529 -27.5136
ltibia 29.3523
lfoot -23.5519 8.98934
ltoes -8.01695
